<svg xmlns="http://www.w3.org/2000/svg" width="58" height="38" fill="none" viewBox="0 0 58 38">
  <path fill="#fff" d="M8.528 16.175h3.76c1.204 0 2.197-.204 2.979-.61.78-.424 1.359-1.01 1.733-1.758.39-.765.586-1.652.586-2.662 0-.911-.18-1.717-.537-2.416a3.64 3.64 0 0 0-1.587-1.66c-.716-.408-1.62-.611-2.71-.611-.863 0-1.66.17-2.393.513a4.38 4.38 0 0 0-1.757 1.44c-.44.619-.66 1.367-.66 2.246H.887c0-1.953.52-3.654 1.562-5.102 1.058-1.449 2.474-2.58 4.248-3.394 1.774-.814 3.728-1.22 5.86-1.22 2.409 0 4.516.39 6.323 1.171 1.806.765 3.214 1.896 4.224 3.394 1.009 1.497 1.513 3.353 1.513 5.566 0 1.123-.26 2.214-.781 3.272-.52 1.041-1.27 1.985-2.246 2.832-.96.83-2.132 1.497-3.516 2.002-1.383.488-2.938.732-4.663.732H8.528v-3.735Zm0 5.346v-3.637h4.883c1.937 0 3.638.22 5.103.659 1.465.44 2.693 1.074 3.686 1.904a7.92 7.92 0 0 1 2.246 2.905c.505 1.107.757 2.336.757 3.687 0 1.66-.317 3.141-.952 4.443a9.304 9.304 0 0 1-2.686 3.272c-1.139.895-2.474 1.579-4.004 2.05-1.53.456-3.198.684-5.004.684-1.498 0-2.97-.203-4.42-.61a13.148 13.148 0 0 1-3.906-1.88 9.67 9.67 0 0 1-2.783-3.174C.765 30.538.423 29.017.423 27.26h7.056c0 .911.227 1.725.683 2.441a4.719 4.719 0 0 0 1.88 1.685c.814.407 1.717.61 2.71.61 1.123 0 2.083-.203 2.88-.61.815-.423 1.433-1.01 1.856-1.758.44-.765.66-1.652.66-2.661 0-1.302-.236-2.344-.709-3.125a4.202 4.202 0 0 0-2.026-1.758c-.879-.374-1.92-.561-3.125-.561h-3.76ZM41.683 37h-7.74l.05-5.713h7.69c1.92 0 3.54-.431 4.858-1.294 1.318-.879 2.311-2.156 2.979-3.833.683-1.676 1.025-3.703 1.025-6.079v-1.733c0-1.823-.195-3.426-.586-4.81-.374-1.383-.936-2.547-1.685-3.491a7.046 7.046 0 0 0-2.758-2.124c-1.09-.488-2.344-.733-3.76-.733h-7.96V1.453h7.96c2.376 0 4.549.407 6.518 1.22a14.7 14.7 0 0 1 5.152 3.443c1.448 1.498 2.563 3.288 3.344 5.371.798 2.067 1.197 4.37 1.197 6.91v1.684c0 2.523-.399 4.826-1.197 6.91-.78 2.083-1.896 3.873-3.344 5.37-1.433 1.481-3.15 2.629-5.152 3.443C46.29 36.6 44.092 37 41.683 37Zm-3.59-35.547V37H30.77V1.453h7.325Z"/>
</svg>
